<svg width="20" height="18" viewBox="0 0 20 18" fill="none" xmlns="http://www.w3.org/2000/svg">
<path d="M19.1575 3.80249C18.9105 3.71589 18.6489 3.67852 18.3875 3.69249H8.37755C7.99255 3.69249 7.49755 3.63749 7.11255 3.74749C6.87636 3.80125 6.6657 3.93425 6.5156 4.12437C6.36551 4.31449 6.28503 4.55027 6.28755 4.79249C6.28755 5.08423 6.40344 5.36402 6.60973 5.57031C6.81602 5.7766 7.09581 5.89249 7.38755 5.89249H17.3425L16.4625 10.5125C16.4069 10.7626 16.2675 10.9861 16.0675 11.1461C15.8674 11.3062 15.6187 11.3931 15.3625 11.3925H7.11255C6.85862 11.3848 6.61406 11.2948 6.41568 11.1361C6.2173 10.9774 6.07582 10.7585 6.01255 10.5125L4.25255 2.37249C4.14592 1.88019 3.87598 1.43841 3.48658 1.1189C3.09718 0.799391 2.61119 0.620924 2.10755 0.612488H1.33755C1.04581 0.612488 0.766021 0.72838 0.559731 0.93467C0.353441 1.14096 0.237549 1.42075 0.237549 1.71249C0.237549 2.00423 0.353441 2.28402 0.559731 2.49031C0.766021 2.6966 1.04581 2.81249 1.33755 2.81249H2.10755L3.86755 10.9525C4.19755 12.4925 5.51755 13.5375 7.11255 13.5375H15.3625C16.6825 13.5375 18.0575 12.6575 18.4425 11.3925C18.7175 10.5125 18.8825 9.52249 19.0475 8.64249C19.2125 7.70749 19.4325 6.77249 19.5975 5.89249C19.6605 5.7154 19.6975 5.53016 19.7075 5.34249C19.753 5.16289 19.7716 4.97753 19.7625 4.79249C19.7625 4.35249 19.5425 3.91249 19.1575 3.80249ZM4.63755 15.7375C4.63755 16.1751 4.81139 16.5948 5.12082 16.9042C5.43026 17.2136 5.84994 17.3875 6.28755 17.3875C6.72516 17.3875 7.14484 17.2136 7.45428 16.9042C7.76371 16.5948 7.93755 16.1751 7.93755 15.7375C7.93755 15.2999 7.76371 14.8802 7.45428 14.5708C7.14484 14.2613 6.72516 14.0875 6.28755 14.0875C5.84994 14.0875 5.43026 14.2613 5.12082 14.5708C4.81139 14.8802 4.63755 15.2999 4.63755 15.7375ZM14.5375 15.7375C14.5375 16.0638 14.6343 16.3828 14.8156 16.6542C14.9969 16.9255 15.2546 17.137 15.5561 17.2619C15.8576 17.3868 16.1894 17.4194 16.5094 17.3558C16.8295 17.2921 17.1235 17.135 17.3543 16.9042C17.585 16.6735 17.7422 16.3795 17.8058 16.0594C17.8695 15.7393 17.8368 15.4076 17.712 15.1061C17.5871 14.8046 17.3756 14.5469 17.1042 14.3656C16.8329 14.1843 16.5139 14.0875 16.1875 14.0875C15.7499 14.0875 15.3303 14.2613 15.0208 14.5708C14.7114 14.8802 14.5375 15.2999 14.5375 15.7375Z" fill="#0D66D0"/>
</svg>
