<svg width="10" height="10" viewBox="0 0 10 10" fill="none" xmlns="http://www.w3.org/2000/svg">
<path d="M9.24924 8.62576C9.33139 8.70871 9.37748 8.82074 9.37748 8.93748C9.37748 9.05423 9.33139 9.16625 9.24924 9.2492C9.16561 9.33006 9.05384 9.37526 8.93752 9.37526C8.8212 9.37526 8.70942 9.33006 8.6258 9.2492L5.00002 5.61795L1.37424 9.2492C1.29061 9.33006 1.17884 9.37526 1.06252 9.37526C0.946196 9.37526 0.834425 9.33006 0.750801 9.2492C0.668646 9.16625 0.622559 9.05423 0.622559 8.93748C0.622559 8.82074 0.668646 8.70871 0.750801 8.62576L4.38205 4.99998L0.750801 1.3742C0.681036 1.2892 0.645383 1.18128 0.650777 1.07145C0.656172 0.961612 0.702228 0.857709 0.779987 0.77995C0.857746 0.702191 0.961648 0.656136 1.07148 0.650741C1.18132 0.645347 1.28923 0.680999 1.37424 0.750765L5.00002 4.38201L8.6258 0.750765C8.7108 0.680999 8.81872 0.645347 8.92856 0.650741C9.03839 0.656136 9.14229 0.702191 9.22005 0.77995C9.29781 0.857709 9.34387 0.961612 9.34926 1.07145C9.35466 1.18128 9.319 1.2892 9.24924 1.3742L5.61799 4.99998L9.24924 8.62576Z" fill="#ED5861"/>
</svg>
