<svg width="22" height="20" viewBox="0 0 22 20" fill="none" xmlns="http://www.w3.org/2000/svg">
<path d="M20.9901 4.33001C20.7206 4.23554 20.4352 4.19477 20.1501 4.21001H9.2301C8.8101 4.21001 8.2701 4.15001 7.8501 4.27001C7.59244 4.32865 7.36262 4.47375 7.19888 4.68115C7.03514 4.88856 6.94734 5.14577 6.9501 5.41001C6.9501 5.72827 7.07653 6.03349 7.30157 6.25853C7.52661 6.48358 7.83184 6.61001 8.1501 6.61001H19.0101L18.0501 11.65C17.9894 11.9228 17.8373 12.1667 17.6191 12.3413C17.4009 12.5159 17.1296 12.6107 16.8501 12.61H7.8501C7.57308 12.6016 7.30629 12.5034 7.08987 12.3303C6.87346 12.1572 6.71913 11.9184 6.6501 11.65L4.7301 2.77001C4.61378 2.23296 4.3193 1.75101 3.8945 1.40246C3.46969 1.0539 2.93952 0.859209 2.3901 0.850006H1.5501C1.23184 0.850006 0.926613 0.976434 0.701569 1.20148C0.476526 1.42652 0.350098 1.73175 0.350098 2.05001C0.350098 2.36827 0.476526 2.67349 0.701569 2.89853C0.926613 3.12358 1.23184 3.25001 1.5501 3.25001H2.3901L4.3101 12.13C4.6701 13.81 6.1101 14.95 7.8501 14.95H16.8501C18.2901 14.95 19.7901 13.99 20.2101 12.61C20.5101 11.65 20.6901 10.57 20.8701 9.61001C21.0501 8.59001 21.2901 7.57001 21.4701 6.61001C21.5387 6.41682 21.5792 6.21474 21.5901 6.01001C21.6397 5.81408 21.6599 5.61187 21.6501 5.41001C21.6501 4.93001 21.4101 4.45001 20.9901 4.33001ZM5.1501 17.35C5.1501 17.8274 5.33974 18.2852 5.67731 18.6228C6.01487 18.9604 6.47271 19.15 6.9501 19.15C7.42749 19.15 7.88532 18.9604 8.22289 18.6228C8.56046 18.2852 8.7501 17.8274 8.7501 17.35C8.7501 16.8726 8.56046 16.4148 8.22289 16.0772C7.88532 15.7396 7.42749 15.55 6.9501 15.55C6.47271 15.55 6.01487 15.7396 5.67731 16.0772C5.33974 16.4148 5.1501 16.8726 5.1501 17.35ZM15.9501 17.35C15.9501 17.706 16.0557 18.054 16.2535 18.35C16.4512 18.646 16.7324 18.8768 17.0613 19.013C17.3902 19.1492 17.7521 19.1849 18.1013 19.1154C18.4504 19.046 18.7712 18.8745 19.0229 18.6228C19.2746 18.3711 19.4461 18.0503 19.5155 17.7012C19.585 17.352 19.5493 16.9901 19.4131 16.6612C19.2768 16.3323 19.0461 16.0511 18.7501 15.8534C18.4541 15.6556 18.1061 15.55 17.7501 15.55C17.2727 15.55 16.8149 15.7396 16.4773 16.0772C16.1397 16.4148 15.9501 16.8726 15.9501 17.35Z" fill="#67D965"/>
</svg>
