<svg width="17" height="13" viewBox="0 0 17 13" fill="none" xmlns="http://www.w3.org/2000/svg">
<path fill-rule="evenodd" clip-rule="evenodd" d="M11.825 0.364563H11.8504C12.4939 0.364555 13.0129 0.364555 13.4332 0.39889C13.866 0.434254 14.2461 0.508955 14.5978 0.688141C15.1564 0.972761 15.6106 1.42692 15.8952 1.98553C16.0744 2.3372 16.1491 2.71732 16.1844 3.15007C16.2188 3.57037 16.2188 4.08939 16.2187 4.73289V4.75831V8.24165V8.26706C16.2188 8.9106 16.2188 9.42962 16.1844 9.84992C16.1491 10.2826 16.0744 10.6627 15.8952 11.0145C15.6106 11.5731 15.1564 12.0272 14.5978 12.3118C14.2461 12.491 13.866 12.5657 13.4332 12.601C13.0129 12.6354 12.4939 12.6354 11.8504 12.6354H11.825H5.175H5.14959C4.50604 12.6354 3.98702 12.6354 3.56673 12.601C3.134 12.5657 2.75393 12.491 2.40219 12.3118C1.84359 12.0272 1.38949 11.5731 1.1048 11.0145C0.92565 10.6627 0.850916 10.2826 0.815608 9.84992C0.781249 9.42962 0.78125 8.9106 0.78125 8.26706V8.24165V4.75831V4.73289C0.78125 4.08939 0.781249 3.57037 0.815608 3.15007C0.850916 2.71732 0.92565 2.3372 1.1048 1.98553C1.38949 1.42692 1.84359 0.972761 2.40219 0.688141C2.75393 0.508955 3.134 0.434254 3.56673 0.39889C3.98702 0.364555 4.50612 0.364555 5.14959 0.364563H5.175H11.825ZM14.0587 1.74621C13.9023 1.66654 13.6959 1.61181 13.3365 1.58245C12.9703 1.55252 12.4999 1.55206 11.825 1.55206H5.175C4.5001 1.55206 4.0297 1.55252 3.66347 1.58245C3.30413 1.61181 3.09767 1.66654 2.94131 1.74621C2.78132 1.82772 2.63565 1.93241 2.50851 2.05603C2.5359 2.07536 2.56202 2.09728 2.58649 2.1218L6.23282 5.76816C6.71004 6.2453 7.04302 6.57764 7.32319 6.81546C7.59797 7.04876 7.78267 7.15603 7.94955 7.21026C8.30731 7.32656 8.69269 7.32656 9.05045 7.21026C9.21733 7.15603 9.40202 7.04876 9.67681 6.81546C9.95698 6.57764 10.29 6.2453 10.7672 5.76816L14.4135 2.1218C14.438 2.09728 14.4641 2.07536 14.4915 2.05603C14.3643 1.93241 14.2187 1.82772 14.0587 1.74621ZM14.9983 3.21638C14.9992 3.22638 15 3.23652 15.0009 3.24677C15.0308 3.61302 15.0312 4.08346 15.0312 4.75831V8.24165C15.0312 8.91654 15.0308 9.38695 15.0009 9.75318C14.9715 10.1125 14.9168 10.319 14.8371 10.4753C14.6663 10.8104 14.3938 11.0829 14.0587 11.2538C13.9023 11.3334 13.6959 11.3881 13.3365 11.4175C12.9703 11.4474 12.4999 11.4479 11.825 11.4479H5.175C4.5001 11.4479 4.0297 11.4474 3.66347 11.4175C3.30413 11.3881 3.09767 11.3334 2.94131 11.2538C2.6062 11.0829 2.33371 10.8104 2.16287 10.4753C2.08322 10.319 2.02852 10.1125 1.99915 9.75318C1.96923 9.38695 1.96875 8.91654 1.96875 8.24165V4.75831C1.96875 4.08346 1.96923 3.61302 1.99915 3.24677C1.99994 3.23652 2.00081 3.22639 2.00168 3.21638L5.39318 6.6078L5.41115 6.62578C5.86612 7.08075 6.23314 7.44784 6.55464 7.72073C6.88563 8.00177 7.20721 8.21774 7.58262 8.33965C8.17882 8.53338 8.82118 8.53338 9.41738 8.33965C9.79279 8.21774 10.1144 8.00177 10.4454 7.72073C10.7668 7.44784 11.1339 7.08083 11.5889 6.62578L11.6068 6.6078L14.9983 3.21638Z" fill="#BCD6F4"/>
</svg>
