<svg width="43" height="32" viewBox="0 0 43 32" fill="none" xmlns="http://www.w3.org/2000/svg">
<path d="M11.6127 27.8589L30.0615 1.50377C30.167 1.34285 30.3038 1.20475 30.4636 1.09765C30.6235 0.990553 30.8032 0.916643 30.9922 0.880301C31.1812 0.843959 31.3755 0.845925 31.5637 0.886083C31.7519 0.926241 31.9301 1.00377 32.0878 1.11408C32.2454 1.22439 32.3793 1.36523 32.4816 1.52826C32.5838 1.69129 32.6523 1.87318 32.6829 2.06315C32.7135 2.25312 32.7057 2.44731 32.6599 2.6342C32.614 2.82109 32.5312 2.99688 32.4162 3.15115L13.1163 30.7224C13.0059 30.8806 12.8648 31.015 12.7014 31.1176C12.538 31.2201 12.3557 31.2887 12.1652 31.3193C11.9747 31.3499 11.78 31.3418 11.5927 31.2956C11.4054 31.2493 11.2294 31.1659 11.075 31.0502L0.72503 23.2877C0.57401 23.1744 0.446778 23.0325 0.350598 22.87C0.254419 22.7076 0.191175 22.5278 0.164478 22.3409C0.110561 21.9635 0.208781 21.5802 0.43753 21.2752C0.666279 20.9702 1.00682 20.7685 1.38424 20.7146C1.76165 20.6607 2.14503 20.7589 2.45003 20.9876L11.6127 27.8589ZM32.0625 14.125C31.6813 14.125 31.3156 13.9736 31.0461 13.704C30.7765 13.4344 30.625 13.0688 30.625 12.6875C30.625 12.3063 30.7765 11.9406 31.0461 11.6711C31.3156 11.4015 31.6813 11.25 32.0625 11.25H40.6875C41.0688 11.25 41.4344 11.4015 41.704 11.6711C41.9736 11.9406 42.125 12.3063 42.125 12.6875C42.125 13.0688 41.9736 13.4344 41.704 13.704C41.4344 13.9736 41.0688 14.125 40.6875 14.125H32.0625ZM26.3125 22.75C25.9313 22.75 25.5656 22.5986 25.2961 22.329C25.0265 22.0594 24.875 21.6938 24.875 21.3125C24.875 20.9313 25.0265 20.5656 25.2961 20.2961C25.5656 20.0265 25.9313 19.875 26.3125 19.875H40.6847C41.0659 19.875 41.4315 20.0265 41.7011 20.2961C41.9707 20.5656 42.1222 20.9313 42.1222 21.3125C42.1222 21.6938 41.9707 22.0594 41.7011 22.329C41.4315 22.5986 41.0659 22.75 40.6847 22.75H26.3125ZM20.5625 31.375C20.1813 31.375 19.8156 31.2236 19.5461 30.954C19.2765 30.6844 19.125 30.3188 19.125 29.9375C19.125 29.5563 19.2765 29.1906 19.5461 28.9211C19.8156 28.6515 20.1813 28.5 20.5625 28.5H40.6847C41.0659 28.5 41.4315 28.6515 41.7011 28.9211C41.9707 29.1906 42.1222 29.5563 42.1222 29.9375C42.1222 30.3188 41.9707 30.6844 41.7011 30.954C41.4315 31.2236 41.0659 31.375 40.6847 31.375H20.5625Z" fill="white"/>
</svg>
