<svg width="14" height="18" viewBox="0 0 14 18" fill="none" xmlns="http://www.w3.org/2000/svg">
<path d="M11.4062 8.02502H11.2188V4.95002C11.2188 2.73752 9.41875 0.900024 7.16875 0.900024C4.95625 0.900024 3.15625 2.70002 3.15625 4.95002V8.02502H2.96875C1.84375 8.02502 0.90625 8.96252 0.90625 10.0875V15.0375C0.90625 16.1625 1.84375 17.1 2.96875 17.1H11.4062C12.5312 17.1 13.4688 16.1625 13.4688 15.0375V10.0875C13.5062 8.92502 12.5687 8.02502 11.4062 8.02502ZM4.76875 4.95002C4.76875 3.60002 5.85625 2.47502 7.24375 2.47502C8.59375 2.47502 9.71875 3.56252 9.71875 4.95002V8.02502H4.76875V4.95002ZM11.8938 15.0375C11.8938 15.3 11.6687 15.525 11.4062 15.525H3.00625C2.74375 15.525 2.51875 15.3 2.51875 15.0375V10.0875C2.51875 9.82502 2.74375 9.60002 3.00625 9.60002H11.4437C11.7063 9.60002 11.9313 9.82502 11.9313 10.0875L11.8938 15.0375Z" fill="#BCD6F4"/>
</svg>
